<svg width="1440" height="1024" viewBox="0 0 1440 1024" fill="none" xmlns="http://www.w3.org/2000/svg">
<rect width="1440" height="1024" fill="white"/>
<path d="M388 1.00001C357.73 7.53001 333.57 32.12 324.56 61.32C315.23 91.57 324.66 123.32 347.95 144.52C370.44 164.97 403.95 174.62 433.05 163.44C460.27 152.98 483.92 123.15 470.78 93.33C459.68 68.15 426.78 53.43 401.08 64.42C375.38 75.41 362.89 106.17 367.59 132.73C373.53 166.24 406.09 184.73 435.86 194.1C471.92 205.52 513.93 207.2 543.47 233.48C566.76 254.2 578.18 286.48 575.86 317.31C574.799 332.76 569.901 347.7 561.61 360.78C552.44 374.97 536.79 387.12 519.53 388.78C500.33 390.63 486.53 375.9 485.14 357.41C483.63 337.08 495.95 319.31 507.66 303.88C530.03 274.42 558.66 245.09 595.82 236.01C628.73 228.01 668.31 237.07 685.76 268.4C705.54 303.92 691.46 346.31 670.49 377.65C659.11 394.65 645.58 410.16 632.26 425.65C618.72 441.4 605.06 457.07 592.26 473.46C568.04 504.54 546.91 538.65 537.8 577.39C529.25 613.73 531.8 652.81 551.97 685C570.71 715 600.97 736.17 633.15 749.74C673.35 766.74 717.05 773.42 759.65 781.56L896.29 807.68L961.81 820.2C963.22 820.47 963.81 818.31 962.41 818.03L827.41 792.22C783.49 783.83 739.26 776.4 695.64 766.56C656.81 757.79 617.86 745.02 586.43 719.75C572.51 708.56 560.27 695.13 551.38 679.57C541.836 662.573 536.414 643.574 535.55 624.1C531.2 539.39 593.94 474.48 644.67 414.59C668.83 386.05 693.67 354.27 696.99 315.59C698.44 298.87 695.79 281.39 687.4 266.68C679.671 253.406 667.723 243.1 653.46 237.4C622.68 224.75 588.01 231.62 560.63 249.05C545.33 258.82 532 271.4 520.1 285C507.95 298.9 495.24 314.17 487.86 331.22C481.58 345.74 480.15 363.63 489.41 377.29C497.69 389.49 512.35 393.35 526.22 389.86C556.43 382.26 573.88 351.67 577.57 322.61C581.22 293.79 572.79 263.24 553.95 241C529.95 212.71 492.49 205.92 458.24 197.78C425.8 190.08 385.97 177.09 372.74 142.9C362.17 115.59 373.51 79.4 401.01 66.9C428.79 54.25 466.65 73.9 471.73 104.19C477.83 140.49 438.17 166.29 406.12 165.92C374.07 165.55 342.73 144.92 329.52 115.7C315.79 85.28 325.43 49.28 348.16 25.94C359.094 14.5422 373.153 6.63071 388.57 3.20001C390 2.89001 389.38 0.730009 388 1.00001Z" fill="#D1ECFD"/>
</svg>
