<svg width="180" height="64" viewBox="0 0 180 64" fill="none" xmlns="http://www.w3.org/2000/svg">
<rect width="180" height="64" rx="8" fill="#5468E7"/>
<path d="M37.4678 38H40.1221V33.4033H42.249L44.6133 38H47.6191L44.9473 33.0078C46.3535 32.4541 47.2412 31.0654 47.2412 29.3955V29.3779C47.2412 26.8291 45.5537 25.3174 42.7061 25.3174H37.4678V38ZM40.1221 31.3906V27.3916H42.3809C43.6904 27.3916 44.5254 28.165 44.5254 29.3779V29.3955C44.5254 30.6436 43.7344 31.3906 42.416 31.3906H40.1221ZM52.9805 38.1934C55.6699 38.1934 56.9707 36.6025 57.2607 35.2139L57.2871 35.1172H54.9316L54.9141 35.1699C54.7295 35.6973 54.0879 36.2773 53.0332 36.2773C51.7236 36.2773 50.9062 35.3984 50.8799 33.8955H57.3662V33.1045C57.3662 30.2568 55.6348 28.3848 52.875 28.3848C50.1152 28.3848 48.3486 30.3008 48.3486 33.2979V33.3066C48.3486 36.3213 50.0977 38.1934 52.9805 38.1934ZM52.9189 30.3008C53.9824 30.3008 54.7471 30.9775 54.9053 32.2783H50.9062C51.0732 31.0039 51.8643 30.3008 52.9189 30.3008ZM63 38.1934C65.5137 38.1934 67.1396 36.6289 67.2627 34.5723V34.5195H64.8721L64.8633 34.5986C64.6875 35.5479 64.0459 36.1807 63.0176 36.1807C61.752 36.1807 60.9609 35.1348 60.9609 33.2891V33.2803C60.9609 31.4785 61.752 30.3975 63.0088 30.3975C64.0723 30.3975 64.6963 31.083 64.8545 31.9795L64.8721 32.0586H67.2539V31.9971C67.1572 29.958 65.5312 28.3848 62.9736 28.3848C60.1523 28.3848 58.3506 30.2568 58.3506 33.2715V33.2803C58.3506 36.3213 60.126 38.1934 63 38.1934ZM72.791 38.1934C75.4805 38.1934 76.7812 36.6025 77.0713 35.2139L77.0977 35.1172H74.7422L74.7246 35.1699C74.54 35.6973 73.8984 36.2773 72.8438 36.2773C71.5342 36.2773 70.7168 35.3984 70.6904 33.8955H77.1768V33.1045C77.1768 30.2568 75.4453 28.3848 72.6855 28.3848C69.9258 28.3848 68.1592 30.3008 68.1592 33.2979V33.3066C68.1592 36.3213 69.9082 38.1934 72.791 38.1934ZM72.7295 30.3008C73.793 30.3008 74.5576 30.9775 74.7158 32.2783H70.7168C70.8838 31.0039 71.6748 30.3008 72.7295 30.3008ZM78.5039 38H81.0703V32.5859C81.0703 31.3555 81.7998 30.5117 82.9512 30.5117C84.1025 30.5117 84.6826 31.2148 84.6826 32.4453V38H87.249V31.918C87.249 29.7119 86.0713 28.3848 83.9971 28.3848C82.5732 28.3848 81.6064 29.0439 81.123 30.125H81.0703V28.5781H78.5039V38ZM95.3438 38H97.9365L100.274 29.501H100.327L102.656 38H105.249L108.615 25.3174H105.864L103.852 34.4053H103.799L101.461 25.3174H99.1318L96.7939 34.4053H96.7412L94.7373 25.3174H91.9863L95.3438 38ZM113.098 38.1934C115.945 38.1934 117.765 36.3652 117.765 33.2891V33.2715C117.765 30.2217 115.91 28.3848 113.089 28.3848C110.276 28.3848 108.431 30.2393 108.431 33.2715V33.2891C108.431 36.3564 110.232 38.1934 113.098 38.1934ZM113.106 36.1807C111.841 36.1807 111.041 35.1348 111.041 33.2891V33.2715C111.041 31.4521 111.85 30.3975 113.089 30.3975C114.337 30.3975 115.154 31.4521 115.154 33.2715V33.2891C115.154 35.126 114.354 36.1807 113.106 36.1807ZM119.092 38H121.658V32.6914C121.658 31.3643 122.396 30.5996 123.662 30.5996C124.031 30.5996 124.383 30.6523 124.594 30.7402V28.4814C124.4 28.4287 124.137 28.3848 123.855 28.3848C122.739 28.3848 121.939 29.0439 121.667 30.1865H121.614V28.5781H119.092V38ZM125.736 38H128.303V34.8799L128.962 34.1504L131.66 38H134.622L130.887 32.6299L134.446 28.5781H131.537L128.355 32.3486H128.303V25.3174H125.736V38ZM139.034 38.1934C141.46 38.1934 143.156 36.9805 143.156 35.1348V35.126C143.156 33.7373 142.348 32.9639 140.379 32.5508L138.779 32.208C137.83 32.0059 137.505 31.6895 137.505 31.2061V31.1973C137.505 30.5908 138.059 30.1953 138.946 30.1953C139.896 30.1953 140.449 30.7051 140.537 31.3818L140.546 31.4521H142.91V31.3643C142.849 29.7119 141.451 28.3848 138.946 28.3848C136.547 28.3848 135 29.5449 135 31.3379V31.3467C135 32.7529 135.923 33.667 137.751 34.0537L139.351 34.3877C140.273 34.5898 140.59 34.8799 140.59 35.3809V35.3896C140.59 35.9961 140.001 36.374 139.034 36.374C138.006 36.374 137.452 35.9434 137.285 35.2051L137.268 35.126H134.763L134.771 35.2051C134.974 36.9893 136.424 38.1934 139.034 38.1934Z" fill="white"/>
</svg>
